<svg width="20" height="20" viewBox="0 0 20 20" fill="none" xmlns="http://www.w3.org/2000/svg">
<g clip-path="url(#clip0)">
<path d="M0.724121 18.4365L2.42201 20.0003H17.5785L19.2763 18.4365" fill="#57BAE5"/>
<path d="M0.724121 18.4365L2.42201 20.0003H3.6383L1.94041 18.4365H0.724121Z" fill="#34A9D1"/>
<path d="M10.5168 3.03156C9.79643 2.82738 8.93726 3.02148 8.93726 3.74117V5.19327H11.0635V3.74117C11.0635 3.34773 10.8185 3.14039 10.5168 3.03156Z" fill="#57BAE5"/>
<path d="M10.6085 3.06914C10.0451 2.81414 8.93726 2.93364 8.93726 3.74126V5.19337H10.1535V3.74126C10.1535 3.38868 10.3505 3.18579 10.6085 3.06914Z" fill="#34A9D1"/>
<path d="M15.9025 8.79453V7.19027C15.9025 6.77504 15.5659 6.43848 15.1507 6.43848H4.84962C4.43446 6.43848 4.0979 6.77504 4.0979 7.19027V11.6511H15.9025V9.85156" fill="#7C5437"/>
<path d="M15.151 6.43848H10.2853C10.1796 8.28113 10.5622 10.0643 11.364 11.6511H15.9028C15.9028 11.2259 15.9028 7.68586 15.9028 7.19027C15.9028 6.77508 15.5662 6.43848 15.151 6.43848Z" fill="#8E5E3D"/>
<path d="M13.3665 6.43809V5.57813C13.3665 5.34133 13.1745 5.14941 12.9377 5.14941H7.06278C6.82599 5.14941 6.63403 5.34133 6.63403 5.57813V6.43809H13.3665Z" fill="#FF4B4E"/>
<path d="M12.9377 5.14941H10.4411C10.3629 5.57051 10.3103 6.00059 10.2852 6.43809H13.3666V5.57813C13.3665 5.34137 13.1746 5.14941 12.9377 5.14941Z" fill="#FC5162"/>
<path d="M6.06599 6.43848H4.84962C4.43446 6.43848 4.0979 6.77504 4.0979 7.19027V11.6511H5.31419V7.19027C5.31419 6.77508 5.65075 6.43848 6.06599 6.43848Z" fill="#603D26"/>
<path d="M8.27907 5.14941H7.06278C6.82599 5.14941 6.63403 5.34133 6.63403 5.57813V6.43809H7.85032V5.57813C7.85032 5.34137 8.04228 5.14941 8.27907 5.14941Z" fill="#EF2235"/>
<path d="M9.95714 0.00524183C9.50839 0.199187 9.21851 0.640203 9.21851 1.12872C9.21851 1.87829 9.87018 2.2611 10.0003 2.2611C10.1227 2.2611 10.7821 1.887 10.7821 1.12872C10.782 0.365359 10.0901 -0.0522191 9.95714 0.00524183Z" fill="#F99830"/>
<path d="M15.1508 6.43848H4.84974C4.50912 6.43848 4.22142 6.66496 4.12908 6.97551C4.08939 7.10949 4.09794 7.14215 4.09794 7.76648L5.49681 8.67535C5.99048 8.99609 6.42271 8.80309 6.57525 8.71352L7.53224 8.09168C7.53232 8.09168 7.53232 8.09168 7.53232 8.09164C7.96974 7.80742 8.35576 7.98402 8.48626 8.06109C10.1681 9.15383 9.82455 9.15891 11.5142 8.06109C11.6447 7.98402 12.0308 7.80742 12.4682 8.09164C12.4682 8.09168 12.4683 8.09168 12.4683 8.09168L13.4252 8.71352C13.5777 8.80309 14.01 8.99606 14.5037 8.67535L15.9026 7.76648V7.19023C15.9026 6.77496 15.5659 6.43848 15.1508 6.43848Z" fill="#FFC373"/>
<path d="M15.1508 6.43848H10.2852C10.2403 7.22215 10.2822 7.99508 10.4146 8.77055C10.463 8.74602 10.3726 8.80301 11.5143 8.06117C11.6448 7.9841 12.0308 7.8075 12.4683 8.09172C12.4683 8.09176 12.4683 8.09176 12.4683 8.09176L13.4253 8.71359C13.5778 8.80316 14.0101 8.99613 14.5038 8.67543L15.9026 7.76656C15.9026 7.13352 15.9039 7.16551 15.8987 7.11344C15.8602 6.73395 15.5399 6.43848 15.1508 6.43848Z" fill="#FCCA8D"/>
<path d="M5.31419 7.1908C5.31419 6.77556 5.65075 6.439 6.06599 6.439C4.83923 6.439 4.76638 6.41509 4.57056 6.4931C4.27493 6.61236 4.0979 6.89419 4.0979 7.19076V7.76701L5.31419 8.55724V7.1908Z" fill="#F7AC52"/>
<path d="M17.7417 14.4129V12.6375C17.7417 12.0928 17.3003 11.6514 16.7557 11.6514H3.24477C2.70016 11.6514 2.25879 12.0928 2.25879 12.6375V17.1767H17.7417V15.4554" fill="#7C5437"/>
<path d="M16.7557 11.6514H11.3638C12.6463 14.19 14.9533 16.1227 17.7418 16.9057C17.7418 16.7223 17.7418 12.7896 17.7418 12.6375C17.7418 12.0928 17.3003 11.6514 16.7557 11.6514Z" fill="#8E5E3D"/>
<path d="M19.3398 17.1768H0.661084C0.301201 17.1768 0.00952148 17.4685 0.00952148 17.8284C0.00952148 18.1882 0.301201 18.48 0.661084 18.48C1.47616 18.48 18.6779 18.48 19.3398 18.48C19.6997 18.48 19.9915 18.1882 19.9915 17.8284C19.9914 17.4685 19.6997 17.1768 19.3398 17.1768Z" fill="#BAD8E8"/>
<path d="M19.3397 17.8288C18.9713 17.8288 1.16208 17.8288 0.660945 17.8288C0.419969 17.8288 0.20993 17.6975 0.0973126 17.503C-0.154172 17.9369 0.16032 18.4803 0.660945 18.4803C1.47602 18.4803 18.6778 18.4803 19.3397 18.4803C19.6996 18.4803 19.9913 18.1886 19.9913 17.8287C19.9913 17.7099 19.959 17.5988 19.9034 17.5029C19.7907 17.6975 19.5808 17.8288 19.3397 17.8288Z" fill="#91C5DB"/>
<path d="M4.4611 11.6514H3.24477C2.70016 11.6514 2.25879 12.0928 2.25879 12.6375V17.1767H3.47508V12.6375C3.47508 12.0928 3.91649 11.6514 4.4611 11.6514Z" fill="#603D26"/>
<path d="M2.25879 12.6374V13.2402L3.52356 14.062C4.01723 14.3828 4.44945 14.1897 4.60199 14.1002L5.55898 13.4784C5.55906 13.4784 5.55906 13.4784 5.55906 13.4783C5.99648 13.1941 6.38258 13.3707 6.51301 13.4478C8.18684 14.5352 7.87785 14.5359 9.50539 13.4784C9.50539 13.4784 9.7184 13.3226 10.0025 13.3226C10.1492 13.3238 10.3178 13.3633 10.495 13.4783C10.495 13.4784 10.495 13.4784 10.495 13.4784C11.4492 14.0984 11.6082 14.2468 11.9351 14.2571C12.1146 14.2655 12.2935 14.2145 12.4348 14.1318C13.0252 13.748 12.7673 13.9157 13.4874 13.4478C13.6178 13.3708 14.0039 13.1941 14.4413 13.4784C14.4413 13.4784 14.4413 13.4784 14.4414 13.4784L15.3984 14.1002C15.5509 14.1898 15.9831 14.3828 16.4769 14.062L17.7417 13.2402V12.6375C17.7417 12.0928 17.3002 11.6514 16.7556 11.6514C16.3142 11.6514 3.39383 11.6514 3.24477 11.6514C2.70016 11.6513 2.25879 12.0928 2.25879 12.6374Z" fill="#FFC373"/>
<path d="M16.7557 11.6514C16.7104 11.6514 11.471 11.6514 11.3638 11.6514C11.7678 12.4511 12.2735 13.1904 12.864 13.8529C12.9317 13.8089 12.8315 13.874 13.4874 13.4478C13.6179 13.3707 14.004 13.1941 14.4414 13.4783C14.4414 13.4784 14.4414 13.4784 14.4415 13.4784L15.3985 14.1002C15.551 14.1897 15.9832 14.3828 16.477 14.062L17.7417 13.2402V12.6374C17.7418 12.0928 17.3003 11.6514 16.7557 11.6514Z" fill="#FCCA8D"/>
<path d="M3.47508 12.6375C3.47508 12.0928 3.91645 11.6514 4.4611 11.6514H3.24477C2.70016 11.6514 2.25879 12.0928 2.25879 12.6375V13.2402L3.47508 14.0305V12.6375Z" fill="#F7AC52"/>
<path d="M6.79609 10.8197C7.02974 10.8197 7.21914 10.6303 7.21914 10.3967C7.21914 10.163 7.02974 9.97363 6.79609 9.97363C6.56245 9.97363 6.37305 10.163 6.37305 10.3967C6.37305 10.6303 6.56245 10.8197 6.79609 10.8197Z" fill="#00CDB3"/>
<path d="M11.0534 10.1234C11.2871 10.1234 11.4765 9.93403 11.4765 9.70039C11.4765 9.46675 11.2871 9.27734 11.0534 9.27734C10.8198 9.27734 10.6304 9.46675 10.6304 9.70039C10.6304 9.93403 10.8198 10.1234 11.0534 10.1234Z" fill="#57BAE5"/>
<path d="M13.9172 10.5561C14.1508 10.5561 14.3402 10.3667 14.3402 10.133C14.3402 9.89937 14.1508 9.70996 13.9172 9.70996C13.6835 9.70996 13.4941 9.89937 13.4941 10.133C13.4941 10.3667 13.6835 10.5561 13.9172 10.5561Z" fill="#00CDB3"/>
<path d="M11.6621 10.965C11.5856 10.8021 11.6557 10.608 11.8185 10.5316L12.4063 10.2556C12.5692 10.1791 12.7633 10.2491 12.8397 10.4121C12.9162 10.5749 12.846 10.7689 12.6833 10.8454L12.0954 11.1214C11.9318 11.1981 11.7383 11.1273 11.6621 10.965Z" fill="#FF4B4E"/>
<path d="M8.61656 10.5468L8.0625 10.2084C7.90898 10.1146 7.86051 9.91411 7.9543 9.76051C8.04808 9.607 8.24859 9.55848 8.40211 9.65231L8.95625 9.99079C9.10984 10.0845 9.15824 10.2851 9.06445 10.4386C8.97074 10.592 8.77047 10.6407 8.61656 10.5468Z" fill="#FFCA54"/>
<path d="M12.5834 16.3314C12.8171 16.3314 13.0065 16.142 13.0065 15.9084C13.0065 15.6748 12.8171 15.4854 12.5834 15.4854C12.3498 15.4854 12.1604 15.6748 12.1604 15.9084C12.1604 16.142 12.3498 16.3314 12.5834 16.3314Z" fill="#57BAE5"/>
<path d="M8.32637 15.6371C8.56001 15.6371 8.74941 15.4477 8.74941 15.2141C8.74941 14.9804 8.56001 14.791 8.32637 14.791C8.09272 14.791 7.90332 14.9804 7.90332 15.2141C7.90332 15.4477 8.09272 15.6371 8.32637 15.6371Z" fill="#00CDB3"/>
<path d="M5.4626 16.0687C5.69624 16.0687 5.88564 15.8793 5.88564 15.6457C5.88564 15.4121 5.69624 15.2227 5.4626 15.2227C5.22896 15.2227 5.03955 15.4121 5.03955 15.6457C5.03955 15.8793 5.22896 16.0687 5.4626 16.0687Z" fill="#FF4B4E"/>
<path d="M7.28416 16.634L6.69643 16.3581C6.53358 16.2816 6.46354 16.0876 6.53998 15.9247C6.61643 15.7618 6.81049 15.6919 6.97334 15.7682L7.56115 16.0442C7.724 16.1207 7.79404 16.3147 7.7176 16.4776C7.64104 16.6405 7.44713 16.7105 7.28416 16.634Z" fill="#FFCA54"/>
<path d="M14.8069 16.3577L14.2191 16.0817C14.0563 16.0052 13.9862 15.8112 14.0627 15.6483C14.1391 15.4855 14.3332 15.4155 14.496 15.4918L15.0839 15.7678C15.2466 15.8443 15.3167 16.0383 15.2403 16.2012C15.1642 16.3634 14.9707 16.4344 14.8069 16.3577Z" fill="#57BAE5"/>
<path d="M10.3154 15.9503C10.2216 15.7968 10.27 15.5963 10.4236 15.5025L10.9777 15.164C11.1312 15.0702 11.3318 15.1187 11.4256 15.2722C11.5193 15.4257 11.4708 15.6262 11.3173 15.7201L10.7632 16.0586C10.6096 16.1524 10.4091 16.1039 10.3154 15.9503Z" fill="#FFCA54"/>
</g>
<defs>
<clipPath id="clip0">
<rect width="20" height="20" fill="white"/>
</clipPath>
</defs>
</svg>
