<svg width="100" height="141" viewBox="0 0 100 141" fill="none" xmlns="http://www.w3.org/2000/svg">
<path d="M91.8867 41.1401C87.1137 52.8686 79.5149 51.2695 70.7546 47.7893C61.9944 44.3091 55.3902 40.266 60.1635 28.5376C64.9364 16.8091 79.2794 1.83666 88.0396 5.31687C96.7998 8.79707 96.66 29.4116 91.8867 41.1401Z" fill="#BEC3D2"/>
<path d="M80.8675 55.1385C76.8527 55.1385 72.7905 53.7795 68.9398 52.2497C64.1902 50.3628 59.39 48.0682 56.4528 44.0892C53.0894 39.5331 52.8191 33.697 55.6489 26.7437C58.31 20.2047 63.5488 12.8991 69.3207 7.67785C76.7404 0.965836 84.0337 -1.4573 89.8552 0.855896C95.6776 3.16877 99.2428 9.90514 99.8942 19.8239C100.401 27.5398 99.0628 36.3948 96.4017 42.9338C93.5719 49.8871 89.2878 53.9138 83.6684 54.9017C82.7397 55.0645 81.8051 55.1385 80.8675 55.1385ZM85.2486 9.61411C83.2889 9.61411 79.9371 11.1106 75.8928 14.7697C71.1996 19.0153 66.7978 25.1234 64.6784 30.3309C62.4267 35.8641 63.7993 37.7234 64.3157 38.4234C65.8122 40.4507 69.3281 42.0405 72.5702 43.3286C75.8123 44.6168 79.4635 45.8733 81.964 45.4345C82.8273 45.2825 85.1205 44.8796 87.3722 39.3465C89.4915 34.139 90.5945 26.7203 90.1825 20.4467C89.7588 13.9943 87.8893 10.4388 86.2244 9.77725C85.9548 9.6702 85.6275 9.61411 85.2486 9.61411Z" fill="#E9EDF5"/>
<path d="M8.11313 41.1401C12.8861 52.8686 20.485 51.2695 29.2452 47.7893C38.0055 44.3091 44.6097 40.266 39.8364 28.5376C35.0631 16.8091 20.7205 1.83666 11.9603 5.31687C3.20002 8.79707 3.33983 29.4116 8.11313 41.1401Z" fill="#DCE1EB"/>
<path d="M19.1325 55.137C18.1949 55.137 17.2606 55.063 16.3315 54.8998C10.7122 53.912 6.42811 49.8853 3.59832 42.932C0.937225 36.3933 -0.400945 27.538 0.105775 19.8221C0.757181 9.90332 4.32272 3.16727 10.1448 0.854078C15.9669 -1.45944 23.2595 0.964018 30.6793 7.67603C36.4511 12.8976 41.69 20.2029 44.3511 26.7418C47.1809 33.6955 46.9106 39.5312 43.5472 44.0877C40.61 48.0667 35.8098 50.3613 31.0602 52.2482C27.2101 53.778 23.1473 55.137 19.1325 55.137ZM14.7514 9.61261C14.3725 9.61261 14.0455 9.66838 13.7756 9.77575C12.111 10.437 10.2412 13.9928 9.81749 20.4452C9.40517 26.7188 10.5085 34.1375 12.6278 39.345C14.8795 44.8781 17.1727 45.2814 18.036 45.433C20.5362 45.8718 24.1873 44.615 27.4298 43.3272C30.6719 42.039 34.1878 40.4492 35.6843 38.4219C36.201 37.7219 37.5733 35.8626 35.3216 30.3294C33.2022 25.1219 28.8004 19.0138 24.1072 14.7682C20.0629 11.1098 16.7111 9.61261 14.7514 9.61261Z" fill="white"/>
<path d="M6.47632 128.21C19.1323 135.92 34.0404 140.368 49.9998 140.368C65.9592 140.368 80.8673 135.92 93.5233 128.21L92.6588 119.747L89.4948 115.996L90.9342 102.862L89.7235 91.0082L53.1381 31.4473H36.6797C25.1416 31.4473 15.4779 40.0802 14.3195 51.4224L9.0654 102.862L9.28599 115.012L7.33989 119.753L6.47632 128.21Z" fill="white"/>
<path d="M92.6591 119.747L89.4952 115.996L90.9345 102.862L85.6805 51.4224C84.522 40.0802 74.8583 31.4473 63.3202 31.4473H50.0391V140.367C65.9839 140.36 80.8777 135.913 93.5233 128.21L92.6591 119.747Z" fill="#E9EDF5"/>
<path d="M9.06585 102.861L7.34131 119.746C34.6543 130.92 65.3462 130.92 92.6592 119.746L90.9347 102.861C64.6351 113.117 35.3654 113.117 9.06585 102.861Z" fill="#7584F2"/>
<path d="M90.9342 102.861C77.7968 107.984 63.9184 110.548 50.0391 110.553V128.126C64.5273 128.121 79.0146 125.328 92.6591 119.746L90.9342 102.861Z" fill="#606AEA"/>
<path d="M50 98.799C43.2582 98.799 37.793 93.3992 37.793 86.7382V80.7861H62.207V86.7382C62.207 93.3992 56.7418 98.799 50 98.799Z" fill="#DCE1EB"/>
<path d="M50.0391 80.7861V98.7981C56.7627 98.7773 62.2068 93.3861 62.2068 86.7382V80.7861H50.0391Z" fill="#BEC3D2"/>
<path d="M50 89.0883C56.7418 89.0883 62.207 85.3716 62.207 80.7868C62.207 76.202 56.7418 72.4854 50 72.4854C43.2582 72.4854 37.793 76.202 37.793 80.7868C37.793 85.3716 43.2582 89.0883 50 89.0883Z" fill="#636978"/>
<path d="M62.2068 80.7862C62.2068 76.2104 56.7627 72.4998 50.0391 72.4854V89.087C56.7627 89.0726 62.2068 85.3622 62.2068 80.7862Z" fill="#414952"/>
<path d="M36.68 31.4476C25.1419 31.4476 15.4782 40.0805 14.3198 51.4227L10.2764 91.0085L39.356 72.5334C44.034 69.5612 46.8618 64.4432 46.8618 58.9482V31.4473H36.68V31.4476Z" fill="#CDD2E1"/>
<path d="M63.3202 31.4476C74.8583 31.4476 84.522 40.0805 85.6805 51.4227L89.7239 91.0085L60.6442 72.5334C55.9663 69.5612 53.1384 64.4432 53.1384 58.9482V31.4473H63.3202V31.4476Z" fill="#AFB4C8"/>
<path d="M31.8483 66.0688H30.7382C28.8268 66.0688 27.2771 64.5377 27.2771 62.6492V61.7331C27.2771 59.8446 28.8268 58.3135 30.7382 58.3135H31.8483C33.7597 58.3135 35.3094 59.8446 35.3094 61.7331V62.6492C35.3094 64.538 33.7597 66.0688 31.8483 66.0688Z" fill="#707789"/>
<path d="M69.2616 66.0688H68.1515C66.2401 66.0688 64.6904 64.5377 64.6904 62.6492V61.7331C64.6904 59.8446 66.2401 58.3135 68.1515 58.3135H69.2616C71.173 58.3135 72.7227 59.8446 72.7227 61.7331V62.6492C72.7227 64.538 71.173 66.0688 69.2616 66.0688Z" fill="#555A66"/>
</svg>
