<svg width="48" height="49" viewBox="0 0 48 49" fill="none" xmlns="http://www.w3.org/2000/svg">
<path d="M40.827 2.63984H33.1237C30.3314 3.88812 29.7123 1.77148 23.8799 1.77148C18.0475 1.77148 17.4285 3.88812 14.636 2.63984H6.93288L5.90576 24.4577C6.54772 33.0327 11.2659 37.7002 14.9892 39.4007H32.7708C36.494 37.7002 41.2122 33.0327 41.8542 24.4577L40.827 2.63984Z" fill="#F5DCB4"/>
<path d="M33.124 2.64004C41.7974 5.56657 37.0757 20.6586 42.6604 27.1823C43.4622 28.1188 44.8788 27.7028 45.2134 26.4572C45.6555 24.8115 46.0971 22.2079 46.0269 18.4878C45.9306 13.3861 47.7601 13.0606 47.7601 13.0606C47.7601 13.0606 45.4492 0.90332 38.5162 0.90332C36.2053 0.90332 33.124 2.64004 33.124 2.64004Z" fill="#965A50"/>
<path d="M15.7918 25.2176C14.3089 25.2176 13.0957 23.8499 13.0957 22.1783V20.4416C13.0957 18.77 14.3089 17.4023 15.7918 17.4023C17.2747 17.4023 18.4879 18.77 18.4879 20.4416V22.1783C18.488 23.8501 17.2747 25.2176 15.7918 25.2176Z" fill="#4B3F4E"/>
<path d="M15.7914 17.4023C15.6596 17.4023 15.5331 17.4256 15.4062 17.4464V21.7441C15.4062 22.7032 16.0961 23.4809 16.9469 23.4809C17.7978 23.4809 18.4875 22.7032 18.4875 21.7441V20.4417C18.4876 18.7702 17.2743 17.4023 15.7914 17.4023Z" fill="#5D5360"/>
<path d="M15.7917 20.8756C16.4299 20.8756 16.9472 20.2924 16.9472 19.573C16.9472 18.8537 16.4299 18.2705 15.7917 18.2705C15.1536 18.2705 14.6362 18.8537 14.6362 19.573C14.6362 20.2924 15.1536 20.8756 15.7917 20.8756Z" fill="white"/>
<path d="M31.9686 25.2176C30.4857 25.2176 29.2725 23.8499 29.2725 22.1783V20.4416C29.2725 18.77 30.4857 17.4023 31.9686 17.4023C33.4515 17.4023 34.6647 18.77 34.6647 20.4416V22.1783C34.6647 23.8501 33.4514 25.2176 31.9686 25.2176Z" fill="#4B3F4E"/>
<path d="M31.9682 17.4023C31.8364 17.4023 31.7099 17.4256 31.583 17.4464V21.7441C31.583 22.7032 32.2728 23.4809 33.1236 23.4809C33.9746 23.4809 34.6643 22.7032 34.6643 21.7441V20.4417C34.6643 18.7702 33.451 17.4023 31.9682 17.4023Z" fill="#5D5360"/>
<path d="M31.9685 20.8756C32.6066 20.8756 33.1239 20.2924 33.1239 19.573C33.1239 18.8537 32.6066 18.2705 31.9685 18.2705C31.3303 18.2705 30.813 18.8537 30.813 19.573C30.813 20.2924 31.3303 20.8756 31.9685 20.8756Z" fill="white"/>
<path d="M42.6604 27.1822C43.4622 28.1187 44.8788 27.7027 45.2134 26.457C45.4669 25.5132 45.717 24.2425 45.8738 22.6386C44.3595 21.7877 43.0668 19.0728 42.2716 14.4714C40.8272 6.11337 38.8051 1.44592 33.124 2.63983C41.7974 5.56636 37.0757 20.6585 42.6604 27.1822Z" fill="#824641"/>
<path d="M14.9892 39.4004H18.6403C18.6403 39.4004 12.2289 34.5521 11.1697 25.9769C9.10922 9.29504 13.0313 4.30392 16.4237 3.03029C15.8863 3.0508 15.3281 2.94891 14.6361 2.63965H6.93288L5.90576 24.4574C6.54772 33.0324 11.2659 37.6999 14.9892 39.4004Z" fill="#E7C9A5"/>
<path d="M14.6361 2.64004C5.96272 5.56657 10.6845 20.6588 5.09968 27.1823C4.29793 28.1188 2.88136 27.7028 2.54676 26.4572C2.10461 24.8115 1.66302 22.2079 1.73326 18.4878C1.82952 13.3861 0 13.0606 0 13.0606C0 13.0606 2.31095 0.90332 9.24389 0.90332C11.5548 0.90332 14.6361 2.64004 14.6361 2.64004Z" fill="#965A50"/>
<path d="M14.3783 2.50176C13.5966 2.09292 11.1586 0.90332 9.24389 0.90332C2.31095 0.90332 0 13.0606 0 13.0606C0 13.0606 1.82952 13.3862 1.73326 18.4879C1.73195 18.556 1.73372 18.6173 1.73279 18.6847C6.16561 -0.273139 12.9772 1.83603 14.3783 2.50176Z" fill="#824641"/>
<path d="M23.8799 46.9271C28.5598 46.9271 32.3536 43.8171 32.3536 39.9806C32.3536 36.1442 28.5598 33.0342 23.8799 33.0342C19.2 33.0342 15.4062 36.1442 15.4062 39.9806C15.4062 43.8171 19.2 46.9271 23.8799 46.9271Z" fill="#BC8E78"/>
<path d="M20.0283 39.9795V44.3213C20.0283 46.7192 21.7527 48.6631 23.8799 48.6631C26.0071 48.6631 27.7315 46.7192 27.7315 44.3213V39.9795H20.0283Z" fill="#FF8087"/>
<path d="M20.0283 43.371C21.1422 43.2137 22.1932 42.8317 23.1096 42.2541V43.453C23.1096 43.9325 23.4545 44.3214 23.8799 44.3214C24.3053 44.3214 24.6502 43.9325 24.6502 43.453V42.243C25.5577 42.8268 26.6115 43.2131 27.7315 43.3713V39.9795H20.0283V43.371Z" fill="#E6646E"/>
<path d="M28.8872 32.165H18.8731C15.6823 32.165 13.0957 34.3033 13.0957 36.941C13.0957 39.5787 15.6824 41.717 18.8731 41.717C20.4798 41.717 21.931 41.1735 22.977 40.2976C23.2418 40.076 23.5611 39.9651 23.8799 39.9651C24.1992 39.9651 24.5185 40.0759 24.7833 40.2976C25.8292 41.1735 27.2804 41.717 28.8872 41.717C32.078 41.717 34.6646 39.5787 34.6646 36.941C34.6647 34.3033 32.078 32.165 28.8872 32.165Z" fill="#D4AF91"/>
<path d="M23.8799 28.6914C26.4325 28.6914 28.5018 30.2465 28.5018 32.1648C28.5018 34.0149 26.5593 34.9891 25.1574 35.7094C24.3447 36.1269 23.4149 36.1269 22.6022 35.7094C21.2003 34.9891 19.2578 34.0149 19.2578 32.1648C19.258 30.2466 21.3273 28.6914 23.8799 28.6914Z" fill="#5D5360"/>
<path d="M21.5452 31.2147C21.4374 30.1218 22.1204 28.9531 22.1204 28.9531C20.441 29.4735 19.2583 30.7146 19.2583 32.1644C19.2583 34.0144 21.2008 34.9885 22.6027 35.7089C23.4153 36.1264 24.3452 36.1264 25.1579 35.7089C25.4594 35.554 25.7858 35.3862 26.1126 35.2017C24.2172 34.8239 21.7618 33.4128 21.5452 31.2147Z" fill="#4B3F4E"/>
</svg>
