<svg width="167" height="49" viewBox="0 0 167 49" fill="none" xmlns="http://www.w3.org/2000/svg">
<path d="M40.827 2.63984H33.1237C30.3314 3.88812 29.7123 1.77148 23.8799 1.77148C18.0475 1.77148 17.4285 3.88812 14.636 2.63984H6.93288L5.90576 24.4577C6.54772 33.0327 11.2659 37.7002 14.9892 39.4007H32.7708C36.494 37.7002 41.2122 33.0327 41.8542 24.4577L40.827 2.63984Z" fill="#F5DCB4"/>
<path d="M33.124 2.64004C41.7974 5.56657 37.0757 20.6586 42.6604 27.1823C43.4622 28.1188 44.8788 27.7028 45.2134 26.4572C45.6555 24.8115 46.0971 22.2079 46.0269 18.4878C45.9306 13.3861 47.7601 13.0606 47.7601 13.0606C47.7601 13.0606 45.4492 0.90332 38.5162 0.90332C36.2053 0.90332 33.124 2.64004 33.124 2.64004Z" fill="#965A50"/>
<path d="M15.7918 25.2176C14.3089 25.2176 13.0957 23.8499 13.0957 22.1783V20.4416C13.0957 18.77 14.3089 17.4023 15.7918 17.4023C17.2747 17.4023 18.4879 18.77 18.4879 20.4416V22.1783C18.488 23.8501 17.2747 25.2176 15.7918 25.2176Z" fill="#4B3F4E"/>
<path d="M15.7914 17.4023C15.6596 17.4023 15.5331 17.4256 15.4062 17.4464V21.7441C15.4062 22.7032 16.0961 23.4809 16.9469 23.4809C17.7978 23.4809 18.4875 22.7032 18.4875 21.7441V20.4417C18.4876 18.7702 17.2743 17.4023 15.7914 17.4023Z" fill="#5D5360"/>
<path d="M15.7917 20.8756C16.4299 20.8756 16.9472 20.2924 16.9472 19.573C16.9472 18.8537 16.4299 18.2705 15.7917 18.2705C15.1536 18.2705 14.6362 18.8537 14.6362 19.573C14.6362 20.2924 15.1536 20.8756 15.7917 20.8756Z" fill="white"/>
<path d="M31.9686 25.2176C30.4857 25.2176 29.2725 23.8499 29.2725 22.1783V20.4416C29.2725 18.77 30.4857 17.4023 31.9686 17.4023C33.4515 17.4023 34.6647 18.77 34.6647 20.4416V22.1783C34.6647 23.8501 33.4514 25.2176 31.9686 25.2176Z" fill="#4B3F4E"/>
<path d="M31.9682 17.4023C31.8364 17.4023 31.7099 17.4256 31.583 17.4464V21.7441C31.583 22.7032 32.2728 23.4809 33.1236 23.4809C33.9746 23.4809 34.6643 22.7032 34.6643 21.7441V20.4417C34.6643 18.7702 33.451 17.4023 31.9682 17.4023Z" fill="#5D5360"/>
<path d="M31.9685 20.8756C32.6066 20.8756 33.1239 20.2924 33.1239 19.573C33.1239 18.8537 32.6066 18.2705 31.9685 18.2705C31.3303 18.2705 30.813 18.8537 30.813 19.573C30.813 20.2924 31.3303 20.8756 31.9685 20.8756Z" fill="white"/>
<path d="M42.6604 27.1822C43.4622 28.1187 44.8788 27.7027 45.2134 26.457C45.4669 25.5132 45.717 24.2425 45.8738 22.6386C44.3595 21.7877 43.0668 19.0728 42.2716 14.4714C40.8272 6.11337 38.8051 1.44592 33.124 2.63983C41.7974 5.56636 37.0757 20.6585 42.6604 27.1822Z" fill="#824641"/>
<path d="M14.9892 39.4004H18.6403C18.6403 39.4004 12.2289 34.5521 11.1697 25.9769C9.10922 9.29504 13.0313 4.30392 16.4237 3.03029C15.8863 3.0508 15.3281 2.94891 14.6361 2.63965H6.93288L5.90576 24.4574C6.54772 33.0324 11.2659 37.6999 14.9892 39.4004Z" fill="#E7C9A5"/>
<path d="M14.6361 2.64004C5.96272 5.56657 10.6845 20.6588 5.09968 27.1823C4.29793 28.1188 2.88136 27.7028 2.54676 26.4572C2.10461 24.8115 1.66302 22.2079 1.73326 18.4878C1.82952 13.3861 0 13.0606 0 13.0606C0 13.0606 2.31095 0.90332 9.24389 0.90332C11.5548 0.90332 14.6361 2.64004 14.6361 2.64004Z" fill="#965A50"/>
<path d="M14.3783 2.50176C13.5966 2.09292 11.1586 0.90332 9.24389 0.90332C2.31095 0.90332 0 13.0606 0 13.0606C0 13.0606 1.82952 13.3862 1.73326 18.4879C1.73195 18.556 1.73372 18.6173 1.73279 18.6847C6.16561 -0.273139 12.9772 1.83603 14.3783 2.50176Z" fill="#824641"/>
<path d="M23.8799 46.9271C28.5598 46.9271 32.3536 43.8171 32.3536 39.9806C32.3536 36.1442 28.5598 33.0342 23.8799 33.0342C19.2 33.0342 15.4062 36.1442 15.4062 39.9806C15.4062 43.8171 19.2 46.9271 23.8799 46.9271Z" fill="#BC8E78"/>
<path d="M20.0283 39.9795V44.3213C20.0283 46.7192 21.7527 48.6631 23.8799 48.6631C26.0071 48.6631 27.7315 46.7192 27.7315 44.3213V39.9795H20.0283Z" fill="#FF8087"/>
<path d="M20.0283 43.371C21.1422 43.2137 22.1932 42.8317 23.1096 42.2541V43.453C23.1096 43.9325 23.4545 44.3214 23.8799 44.3214C24.3053 44.3214 24.6502 43.9325 24.6502 43.453V42.243C25.5577 42.8268 26.6115 43.2131 27.7315 43.3713V39.9795H20.0283V43.371Z" fill="#E6646E"/>
<path d="M28.8872 32.165H18.8731C15.6823 32.165 13.0957 34.3033 13.0957 36.941C13.0957 39.5787 15.6824 41.717 18.8731 41.717C20.4798 41.717 21.931 41.1735 22.977 40.2976C23.2418 40.076 23.5611 39.9651 23.8799 39.9651C24.1992 39.9651 24.5185 40.0759 24.7833 40.2976C25.8292 41.1735 27.2804 41.717 28.8872 41.717C32.078 41.717 34.6646 39.5787 34.6646 36.941C34.6647 34.3033 32.078 32.165 28.8872 32.165Z" fill="#D4AF91"/>
<path d="M23.8799 28.6914C26.4325 28.6914 28.5018 30.2465 28.5018 32.1648C28.5018 34.0149 26.5593 34.9891 25.1574 35.7094C24.3447 36.1269 23.4149 36.1269 22.6022 35.7094C21.2003 34.9891 19.2578 34.0149 19.2578 32.1648C19.258 30.2466 21.3273 28.6914 23.8799 28.6914Z" fill="#5D5360"/>
<path d="M21.5452 31.2147C21.4374 30.1218 22.1204 28.9531 22.1204 28.9531C20.441 29.4735 19.2583 30.7146 19.2583 32.1644C19.2583 34.0144 21.2008 34.9885 22.6027 35.7089C23.4153 36.1264 24.3452 36.1264 25.1579 35.7089C25.4594 35.554 25.7858 35.3862 26.1126 35.2017C24.2172 34.8239 21.7618 33.4128 21.5452 31.2147Z" fill="#4B3F4E"/>
<path d="M64.656 15.4C66.9333 15.4 68.6973 15.904 69.948 16.912C71.2173 17.9013 71.852 19.3107 71.852 21.14C71.852 22.8013 71.4787 24.2293 70.732 25.424C70.004 26.6 68.9493 27.5053 67.568 28.14C66.1867 28.756 64.5533 29.064 62.668 29.064H57.432L56.256 35H53.456L57.376 15.4H64.656ZM62.724 26.628C64.74 26.628 66.2987 26.18 67.4 25.284C68.5013 24.388 69.052 23.0907 69.052 21.392C69.052 20.2347 68.6507 19.3573 67.848 18.76C67.0453 18.144 65.8973 17.836 64.404 17.836H59.7L57.936 26.628H62.724ZM75.5749 28.42V28.588C75.5749 29.9693 75.9669 31.024 76.7509 31.752C77.5349 32.4613 78.7109 32.816 80.2789 32.816C81.1936 32.816 82.0522 32.6667 82.8549 32.368C83.6576 32.0507 84.3296 31.6307 84.8709 31.108L86.0189 33.04C85.2909 33.712 84.4042 34.2347 83.3589 34.608C82.3136 34.9813 81.2122 35.168 80.0549 35.168C78.5989 35.168 77.3389 34.9067 76.2749 34.384C75.2109 33.8613 74.3896 33.1147 73.8109 32.144C73.2322 31.1733 72.9429 30.0347 72.9429 28.728C72.9429 27.0667 73.2976 25.5733 74.0069 24.248C74.7349 22.9227 75.7336 21.8867 77.0029 21.14C78.2909 20.3933 79.7282 20.02 81.3149 20.02C83.3309 20.02 84.9362 20.5987 86.1309 21.756C87.3442 22.8947 87.9509 24.4533 87.9509 26.432C87.9509 27.0293 87.8856 27.692 87.7549 28.42H75.5749ZM81.2029 22.26C79.8776 22.26 78.7389 22.6333 77.7869 23.38C76.8349 24.1267 76.1909 25.1533 75.8549 26.46H85.4309C85.5056 25.1347 85.1509 24.108 84.3669 23.38C83.6016 22.6333 82.5469 22.26 81.2029 22.26ZM94.0641 30.268C94.0081 30.548 93.9801 30.8093 93.9801 31.052C93.9801 31.6493 94.1388 32.1067 94.4561 32.424C94.7921 32.7413 95.2868 32.9 95.9401 32.9C96.7241 32.9 97.4334 32.6667 98.0681 32.2L98.6281 34.244C97.7321 34.86 96.5841 35.168 95.1841 35.168C94.0081 35.168 93.0561 34.8413 92.3281 34.188C91.6188 33.516 91.2641 32.6013 91.2641 31.444C91.2641 31.052 91.3014 30.6787 91.3761 30.324L92.9721 22.372H90.4521L90.8721 20.16H93.4201L94.0641 16.912H96.7521L96.1081 20.16H100.364L99.9161 22.372H95.6601L94.0641 30.268ZM120.765 15.4C123.043 15.4 124.807 15.904 126.057 16.912C127.327 17.9013 127.961 19.3107 127.961 21.14C127.961 22.8013 127.588 24.2293 126.841 25.424C126.113 26.6 125.059 27.5053 123.677 28.14C122.296 28.756 120.663 29.064 118.777 29.064H113.541L112.365 35H109.565L113.485 15.4H120.765ZM118.833 26.628C120.849 26.628 122.408 26.18 123.509 25.284C124.611 24.388 125.161 23.0907 125.161 21.392C125.161 20.2347 124.76 19.3573 123.957 18.76C123.155 18.144 122.007 17.836 120.513 17.836H115.809L114.045 26.628H118.833ZM145.992 20.16L143.052 35H140.476L140.84 33.18C140.168 33.8147 139.384 34.3093 138.488 34.664C137.611 35 136.65 35.168 135.604 35.168C134.335 35.168 133.206 34.916 132.216 34.412C131.227 33.8893 130.452 33.1427 129.892 32.172C129.332 31.2013 129.052 30.0627 129.052 28.756C129.052 27.076 129.416 25.5733 130.144 24.248C130.872 22.9227 131.871 21.8867 133.14 21.14C134.428 20.3933 135.866 20.02 137.452 20.02C138.722 20.02 139.804 20.244 140.7 20.692C141.615 21.14 142.315 21.8027 142.8 22.68L143.304 20.16H145.992ZM136.192 32.816C137.294 32.816 138.283 32.5547 139.16 32.032C140.056 31.4907 140.747 30.744 141.232 29.792C141.736 28.84 141.988 27.7573 141.988 26.544C141.988 25.2187 141.606 24.192 140.84 23.464C140.075 22.736 138.983 22.372 137.564 22.372C136.463 22.372 135.474 22.6427 134.596 23.184C133.719 23.7067 133.028 24.444 132.524 25.396C132.02 26.348 131.768 27.4307 131.768 28.644C131.768 29.9507 132.151 30.9773 132.916 31.724C133.7 32.452 134.792 32.816 136.192 32.816ZM166.282 14.224L162.138 35H159.562L159.926 33.18C159.254 33.8147 158.47 34.3093 157.574 34.664C156.697 35 155.736 35.168 154.69 35.168C153.421 35.168 152.292 34.916 151.302 34.412C150.313 33.8893 149.538 33.1427 148.978 32.172C148.418 31.2013 148.138 30.0627 148.138 28.756C148.138 27.076 148.502 25.5733 149.23 24.248C149.958 22.9227 150.957 21.8867 152.226 21.14C153.514 20.3933 154.952 20.02 156.538 20.02C157.808 20.02 158.9 20.2533 159.814 20.72C160.748 21.168 161.448 21.8307 161.914 22.708L163.594 14.224H166.282ZM155.278 32.816C156.38 32.816 157.369 32.5547 158.246 32.032C159.142 31.4907 159.833 30.744 160.318 29.792C160.822 28.84 161.074 27.7573 161.074 26.544C161.074 25.2187 160.692 24.192 159.926 23.464C159.161 22.736 158.069 22.372 156.65 22.372C155.549 22.372 154.56 22.6427 153.682 23.184C152.805 23.7067 152.114 24.444 151.61 25.396C151.106 26.348 150.854 27.4307 150.854 28.644C150.854 29.9507 151.237 30.9773 152.002 31.724C152.786 32.452 153.878 32.816 155.278 32.816Z" fill="white"/>
</svg>
