<svg width="70" height="70" viewBox="0 0 70 70" fill="none" xmlns="http://www.w3.org/2000/svg">
<path d="M35 70C54.33 70 70 54.33 70 35C70 15.67 54.33 0 35 0C15.67 0 0 15.67 0 35C0 54.33 15.67 70 35 70Z" fill="#FFC10E"/>
<path d="M12.0215 35.0234C12.0215 47.7125 22.3087 57.9997 34.9978 57.9997C47.6875 57.9997 57.9751 47.7125 57.9751 35.0234H12.0215Z" fill="#333333"/>
<path d="M22.2219 44.1191C22.2219 51.1749 27.9425 56.8949 34.9977 56.8949C42.0541 56.8949 47.7741 51.1744 47.7741 44.1191H22.2219Z" fill="#CA2027"/>
<path d="M24.3613 28.4243C27.3971 28.4243 29.8581 25.9633 29.8581 22.9275C29.8581 19.8917 27.3971 17.4307 24.3613 17.4307C21.3255 17.4307 18.8645 19.8917 18.8645 22.9275C18.8645 25.9633 21.3255 28.4243 24.3613 28.4243Z" fill="#333333"/>
<path d="M45.1467 28.4243C48.1825 28.4243 50.6435 25.9633 50.6435 22.9275C50.6435 19.8917 48.1825 17.4307 45.1467 17.4307C42.1109 17.4307 39.6499 19.8917 39.6499 22.9275C39.6499 25.9633 42.1109 28.4243 45.1467 28.4243Z" fill="#333333"/>
</svg>
