<svg width="70" height="70" viewBox="0 0 70 70" fill="none" xmlns="http://www.w3.org/2000/svg">
<path d="M35 70C54.33 70 70 54.33 70 35C70 15.67 54.33 0 35 0C15.67 0 0 15.67 0 35C0 54.33 15.67 70 35 70Z" fill="#FFC10E"/>
<path d="M24.3613 28.4243C27.3971 28.4243 29.8581 25.9633 29.8581 22.9275C29.8581 19.8917 27.3971 17.4307 24.3613 17.4307C21.3255 17.4307 18.8645 19.8917 18.8645 22.9275C18.8645 25.9633 21.3255 28.4243 24.3613 28.4243Z" fill="#333333"/>
<path d="M45.1467 28.4243C48.1825 28.4243 50.6435 25.9633 50.6435 22.9275C50.6435 19.8917 48.1825 17.4307 45.1467 17.4307C42.1109 17.4307 39.6499 19.8917 39.6499 22.9275C39.6499 25.9633 42.1109 28.4243 45.1467 28.4243Z" fill="#333333"/>
<path d="M15.5496 48.236C28.3089 48.236 41.0687 48.236 53.828 48.236C55.6103 48.236 55.6103 45.4727 53.828 45.4727C41.0687 45.4727 28.3089 45.4727 15.5496 45.4727C13.7673 45.4727 13.7673 48.236 15.5496 48.236Z" fill="#333333"/>
</svg>
