<svg width="32" height="32" viewBox="0 0 32 32" fill="none" xmlns="http://www.w3.org/2000/svg">
<path d="M15.5043 5.0492H15.5099L25.5067 2.36787C26.0963 2.2126 26.7003 2.56269 26.8585 3.1513L28.2821 8.46978L28.9276 10.8809V10.8865L31.9619 22.1965C32.1199 22.7844 31.7717 23.3894 31.1839 23.5481L25.0985 25.1757L15.5043 5.0492Z" fill="#F3D55B"/>
<path d="M6.22448 2.94186C6.484 2.7678 6.80626 2.71531 7.10728 2.79831L28.4254 8.50864C29.0133 8.66733 29.3614 9.27229 29.2035 9.86017L23.4931 31.1783C23.3345 31.7662 22.7295 32.1143 22.1414 31.9564L0.823234 26.246C0.235356 26.0874 -0.112781 25.4824 0.0454189 24.8943L4.63565 7.75817L6.22448 2.94186Z" fill="#F9EAB0"/>
<path d="M24.9518 12.4149C24.9035 12.4151 24.8556 12.4088 24.809 12.3963L16.9613 10.2958C16.6671 10.2169 16.4923 9.91443 16.5714 9.62001C16.6502 9.32558 16.9527 9.15102 17.2472 9.22988L25.0946 11.3331C25.3622 11.4046 25.5351 11.6634 25.4992 11.9378C25.463 12.2122 25.2292 12.4176 24.9523 12.4178L24.9518 12.4149Z" fill="#802F34"/>
<path d="M24.0944 15.6146C24.0463 15.6146 23.9982 15.6082 23.9516 15.5958L18.6165 14.1683C18.4254 14.1183 18.2755 13.9696 18.2239 13.7787C18.1724 13.5878 18.2271 13.3839 18.367 13.2443C18.5069 13.1046 18.711 13.0504 18.9017 13.1024L24.2368 14.5299C24.5043 14.6014 24.6772 14.86 24.6413 15.1346C24.6052 15.409 24.3713 15.6143 24.0944 15.6146Z" fill="#802F34"/>
<path d="M23.2399 18.8149C23.1913 18.8149 23.1433 18.8085 23.0964 18.7961L16.4593 17.0146C16.1649 16.9355 15.9906 16.6328 16.0694 16.3384C16.1485 16.0442 16.4513 15.8696 16.7457 15.9487L23.3828 17.7302C23.6503 17.8017 23.8232 18.0605 23.787 18.3352C23.7509 18.6098 23.5168 18.8149 23.2399 18.8149Z" fill="#802F34"/>
<path d="M6.92737 17.8691C6.87903 17.8694 6.83069 17.863 6.78406 17.8506L5.18396 17.4219C4.88977 17.3428 4.71521 17.04 4.79431 16.7456C4.87317 16.4514 5.1759 16.2769 5.47034 16.356L7.07043 16.7844C7.33777 16.8562 7.51086 17.115 7.47473 17.3896C7.4386 17.6641 7.20447 17.8694 6.92737 17.8691Z" fill="#802F34"/>
<path d="M22.3813 22.0104C22.3332 22.0104 22.2851 22.004 22.2385 21.9916L9.9817 18.705C9.68727 18.6262 9.51272 18.3235 9.59157 18.029C9.67043 17.7348 9.97316 17.56 10.2676 17.6391L22.5244 20.9228C22.7917 20.9945 22.9648 21.2531 22.9287 21.5277C22.8926 21.8021 22.6589 22.0075 22.3821 22.0075L22.3813 22.0104Z" fill="#802F34"/>
<path d="M6.07021 21.0659C6.02187 21.0661 5.97377 21.0598 5.92714 21.0471L4.32729 20.6191C4.03286 20.5403 3.8583 20.2375 3.93715 19.9431C4.01601 19.6489 4.31875 19.4741 4.61293 19.5532L6.21303 19.9812C6.48061 20.053 6.65346 20.3117 6.61733 20.5864C6.5812 20.8608 6.34707 21.0661 6.07021 21.0659Z" fill="#802F34"/>
<path d="M21.5252 25.2072C21.4768 25.2072 21.429 25.2008 21.3824 25.1884L9.12481 21.904C8.93438 21.853 8.7857 21.7043 8.73468 21.5139C8.6839 21.3235 8.73834 21.1201 8.87774 20.981C9.01714 20.8416 9.22026 20.7871 9.41069 20.8382L21.6675 24.1225C21.9348 24.194 22.1079 24.4528 22.0718 24.7272C22.0359 25.0016 21.802 25.207 21.5252 25.2072Z" fill="#802F34"/>
<path d="M15.9843 16.6852L12.3486 15.4714L15.4714 12.3486L16.685 15.9845C16.7501 16.1833 16.6977 16.402 16.5497 16.55C16.4018 16.6979 16.1833 16.7501 15.9843 16.6852Z" fill="#BDC3C7"/>
<path d="M5.33069 2.20814L2.20796 5.33088L0.646714 3.76939C-0.215571 2.9071 -0.215571 1.50918 0.646714 0.646897C1.509 -0.215632 2.90716 -0.215632 3.76945 0.646897L5.33069 2.20814Z" fill="#FB7B76"/>
<path d="M15.4714 12.3487L14.3017 13.5183V13.524L13.5237 14.3018H13.5183L12.3486 15.4714L3.76947 6.89227L4.94449 5.72261L5.72255 4.9448L6.8922 3.76953L15.4714 12.3487Z" fill="#E64C3C"/>
<path d="M2.20844 5.33074L5.33092 2.20801L6.89217 3.7695L3.76968 6.89199L2.20844 5.33074Z" fill="#BDC3C7"/>
<path d="M7.66998 7.66986C7.56501 7.77191 7.42463 7.82928 7.27839 7.82977C7.13362 7.82904 6.99495 7.77167 6.89217 7.66986L4.94446 5.72215L5.72252 4.94434L7.66998 6.8918C7.88385 7.10713 7.88385 7.45453 7.66998 7.66986Z" fill="#C03A2B"/>
<path d="M14.3017 13.5186V13.5242L13.5236 14.302H13.5182L8.44804 9.23178C8.30791 9.09189 8.25322 8.88779 8.30449 8.69664C8.35576 8.50548 8.50517 8.35607 8.69633 8.30504C8.88749 8.25377 9.09134 8.30846 9.23147 8.44835L14.3017 13.5186Z" fill="#C03A2B"/>
</svg>
