<svg width="28" height="36" viewBox="0 0 28 36" fill="none" xmlns="http://www.w3.org/2000/svg">
<path d="M0 30.0839V4.11683C0 1.84317 1.84317 0 4.11683 0H26.9707C27.5391 0 27.9999 0.46081 27.9999 1.02921V25.3636L13.9943 30.9961L0 30.0839Z" fill="#7D5D43"/>
<path d="M26.9708 0H13.9943V30.9961L27.9999 25.3636V1.02921C28 0.46081 27.5392 0 26.9708 0V0Z" fill="#5B4431"/>
<path d="M28 25.3643V27.4227L27.3138 30.239L28 33.0552V34.0845C28 34.6529 27.5392 35.1137 26.9708 35.1137H4.19881C1.88358 35.1137 6.10352e-05 33.2301 6.10352e-05 30.9149V30.0846C6.10352e-05 27.4818 2.11762 25.3643 4.72042 25.3643H28V25.3643Z" fill="#9D7655"/>
<path d="M13.9943 25.3633V35.1126H26.9707C27.5391 35.1126 27.9999 34.6518 27.9999 34.0834V33.0542L27.3138 30.2379L27.9999 27.4217V25.3633H13.9943Z" fill="#7D5D43"/>
<path d="M4.19881 33.0535C3.01858 33.0535 2.05847 32.0933 2.05847 30.9131V30.0828C2.05847 28.6151 3.25263 27.4209 4.72041 27.4209H28L27.3138 30.2372L28 33.0534H4.19881V33.0535Z" fill="#F5EAD8"/>
<path d="M13.9943 27.4219H27.9999V33.0544H13.9943V27.4219Z" fill="#EAD5B0"/>
<path d="M23.1217 9.76821L14.4031 5.99486C14.1422 5.88192 13.8464 5.88192 13.5855 5.99486L4.86696 9.76814C4.34529 9.99388 4.10542 10.5998 4.33123 11.1215C4.49899 11.5091 4.87664 11.7406 5.27364 11.7416C5.27432 11.7416 5.27501 11.7418 5.27576 11.7418H5.27961C5.28256 11.7418 5.28544 11.7419 5.28839 11.7418H6.78986V19.1865H6.38312C5.81472 19.1865 5.35391 19.6473 5.35391 20.2157C5.35391 20.7841 5.81472 21.2449 6.38312 21.2449H21.6056C22.174 21.2449 22.6348 20.7841 22.6348 20.2157C22.6348 19.6473 22.174 19.1865 21.6056 19.1865H21.1988V11.742H22.7071C22.7089 11.742 22.7107 11.7422 22.7124 11.7422C23.1104 11.7422 23.4894 11.51 23.6575 11.1215C23.8832 10.5999 23.6433 9.99395 23.1217 9.76821ZM13.9943 8.06089L17.7435 9.68347H10.2451L13.9943 8.06089ZM15.0235 11.742V19.1866H12.9651V11.742H15.0235ZM8.84828 11.742H10.9067V19.1866H8.84828V11.742ZM19.1403 19.1866H17.0819V11.742H19.1403V19.1866Z" fill="#EAD5B0"/>
<path d="M23.1217 9.7672L14.4031 5.99385C14.2727 5.93738 14.1335 5.90918 13.9943 5.90918V8.05988L17.7435 9.68246H13.9943V11.7409H15.0235V19.1855H13.9943V21.2439H21.6055C22.1739 21.2439 22.6347 20.7831 22.6347 20.2147C22.6347 19.6463 22.1739 19.1855 21.6055 19.1855H21.1988V11.7409H22.707C22.7088 11.7409 22.7106 11.7412 22.7124 11.7412C23.1104 11.7412 23.4893 11.509 23.6574 11.1205C23.8832 10.5989 23.6433 9.99294 23.1217 9.7672ZM19.1404 19.1856H17.0819V11.7409H19.1404V19.1856Z" fill="#AF947B"/>
</svg>
