<svg width="130" height="128" viewBox="0 0 130 128" fill="none" xmlns="http://www.w3.org/2000/svg">
<g clip-path="url(#clip0)">
<path d="M31.3295 117.745C12.9669 106.559 0.727051 86.5055 0.727051 63.6271C0.727051 28.5396 29.5158 0.0957031 65.0285 0.0957031C100.541 0.0957031 129.33 28.5396 129.33 63.6271C129.33 86.5058 117.09 106.56 98.7269 117.746L31.3295 117.745Z" fill="#C38778"/>
<path d="M98.7271 117.745C117.09 106.559 129.33 86.5051 129.33 63.6266C129.33 58.8079 128.787 54.1146 127.758 49.6028L98.7274 20.9199L77.0812 51.1909L53.2703 27.6652L33.2864 58.1416L94.6654 118.786L98.7271 117.745Z" fill="#A65D4E"/>
<path d="M97.4601 50.3288C93.7645 59.4098 87.8809 58.1717 81.0981 55.477C74.3153 52.7824 69.2019 49.652 72.8977 40.571C76.5933 31.49 87.6986 19.8973 94.4814 22.5919C101.264 25.2865 101.156 41.2478 97.4601 50.3288Z" fill="#BEC3D2"/>
<path d="M88.9282 61.1682C85.8196 61.1682 82.6744 60.116 79.6929 58.9314C76.0154 57.4705 72.2987 55.6938 70.0246 52.613C67.4203 49.0853 67.2111 44.5667 69.4021 39.1829C71.4625 34.12 75.5188 28.4634 79.9878 24.4208C85.7327 19.2238 91.3797 17.3477 95.887 19.1387C100.395 20.9295 103.156 26.1453 103.66 33.8251C104.053 39.7993 103.016 46.6555 100.956 51.7184C98.7648 57.1022 95.4477 60.2199 91.0968 60.9848C90.3777 61.1109 89.6541 61.1682 88.9282 61.1682ZM92.3203 25.92C90.803 25.92 88.2078 27.0787 85.0764 29.9118C81.4426 33.199 78.0344 37.9284 76.3934 41.9604C74.65 46.2445 75.7127 47.6842 76.1126 48.2262C77.2713 49.7958 79.9935 51.0268 82.5038 52.0241C85.0141 53.0215 87.8411 53.9944 89.7772 53.6546C90.4455 53.537 92.2211 53.225 93.9645 48.9409C95.6055 44.9089 96.4595 39.1648 96.1405 34.3073C95.8124 29.3114 94.3649 26.5585 93.0759 26.0463C92.8671 25.9634 92.6137 25.92 92.3203 25.92Z" fill="#E9EDF5"/>
<path d="M32.5965 50.3288C36.2921 59.4098 42.1756 58.1717 48.9584 55.477C55.7412 52.7824 60.8547 49.652 57.1589 40.571C53.4631 31.49 42.358 19.8973 35.5752 22.5919C28.7924 25.2865 28.9007 41.2478 32.5965 50.3288Z" fill="#DCE1EB"/>
<path d="M41.1286 61.1666C40.4027 61.1666 39.6794 61.1093 38.96 60.9829C34.6091 60.2181 31.292 57.1003 29.101 51.7166C27.0406 46.6539 26.0045 39.7975 26.3968 33.8233C26.9012 26.1434 29.6619 20.9279 34.1698 19.1369C38.6777 17.3456 44.3241 19.222 50.0691 24.4189C54.538 28.4618 58.5943 34.1181 60.6547 39.181C62.8457 44.5651 62.6365 49.0835 60.0323 52.6115C57.7581 55.6922 54.0414 57.4689 50.3639 58.9298C47.383 60.1144 44.2372 61.1666 41.1286 61.1666ZM37.7365 25.9184C37.4431 25.9184 37.1899 25.9615 36.981 26.0447C35.6922 26.5566 34.2444 29.3098 33.9163 34.3057C33.5971 39.1632 34.4514 44.9073 36.0923 48.9393C37.8357 53.2234 39.6113 53.5356 40.2797 53.653C42.2155 53.9928 45.0425 53.0197 47.553 52.0225C50.0633 51.0252 52.7855 49.7942 53.9442 48.2246C54.3444 47.6826 55.4068 46.2429 53.6634 41.9588C52.0225 37.9268 48.6142 33.1974 44.9805 29.9102C41.849 27.0776 39.2539 25.9184 37.7365 25.9184Z" fill="white"/>
<path d="M31.3296 117.745C41.1288 123.714 52.6716 127.158 65.0286 127.158C77.3855 127.158 88.9283 123.714 98.7275 117.745L98.0581 111.192L95.6084 108.288L96.7229 98.1186L95.7855 88.9405L67.4585 42.8242H54.7152C45.7816 42.8242 38.2993 49.5084 37.4023 58.2904L33.3342 98.1186L33.505 107.526L31.9982 111.197L31.3296 117.745Z" fill="white"/>
<path d="M98.058 111.192L95.6083 108.288L96.7228 98.1186L92.6547 58.2904C91.7578 49.5084 84.2754 42.8242 75.3418 42.8242H65.0586V127.158C77.4042 127.152 88.936 123.709 98.7272 117.745L98.058 111.192Z" fill="#E9EDF5"/>
<path d="M33.3343 98.1182L31.999 111.191C53.1467 119.843 76.9105 119.843 98.0582 111.191L96.7229 98.1182C76.36 106.059 53.6972 106.059 33.3343 98.1182Z" fill="#7584F2"/>
<path d="M96.7228 98.1182C86.5508 102.085 75.8052 104.07 65.0588 104.073V117.68C76.2767 117.676 87.4938 115.514 98.0583 111.191L96.7228 98.1182Z" fill="#606AEA"/>
<path d="M65.0285 94.9732C59.8085 94.9732 55.5769 90.7923 55.5769 85.6349V81.0264H74.48V85.6349C74.48 90.7923 70.2484 94.9732 65.0285 94.9732Z" fill="#DCE1EB"/>
<path d="M65.0586 81.0264V94.9725C70.2645 94.9564 74.4798 90.7822 74.4798 85.6349V81.0264H65.0586Z" fill="#BEC3D2"/>
<path d="M65.0285 87.4538C70.2484 87.4538 74.48 84.5761 74.48 81.0262C74.48 77.4764 70.2484 74.5986 65.0285 74.5986C59.8085 74.5986 55.5769 77.4764 55.5769 81.0262C55.5769 84.5761 59.8085 87.4538 65.0285 87.4538Z" fill="#636978"/>
<path d="M74.48 81.0257C74.48 77.4829 70.2647 74.6098 65.0588 74.5986V87.4528C70.2647 87.4416 74.48 84.5688 74.48 81.0257Z" fill="#414952"/>
<path d="M54.7151 42.8245C45.7814 42.8245 38.2991 49.5087 37.4022 58.2906L34.2715 88.9408L56.787 74.636C60.409 72.3348 62.5985 68.372 62.5985 64.1174V42.8242H54.7151V42.8245Z" fill="#CDD2E1"/>
<path d="M75.3417 42.8245C84.2753 42.8245 91.7577 49.5087 92.6546 58.2906L95.7853 88.9408L73.2697 74.636C69.6478 72.3348 67.4583 68.372 67.4583 64.1174V42.8242H75.3417V42.8245Z" fill="#AFB4C8"/>
<path d="M50.9742 69.6317H50.1146C48.6347 69.6317 47.4348 68.4462 47.4348 66.9839V66.2747C47.4348 64.8125 48.6347 63.627 50.1146 63.627H50.9742C52.4541 63.627 53.654 64.8125 53.654 66.2747V66.9839C53.654 68.4464 52.4541 69.6317 50.9742 69.6317Z" fill="#707789"/>
<path d="M79.9424 69.6317H79.0829C77.603 69.6317 76.4031 68.4462 76.4031 66.9839V66.2747C76.4031 64.8125 77.603 63.627 79.0829 63.627H79.9424C81.4224 63.627 82.6222 64.8125 82.6222 66.2747V66.9839C82.6222 68.4464 81.4224 69.6317 79.9424 69.6317Z" fill="#555A66"/>
</g>
<defs>
<clipPath id="clip0">
<rect x="0.727051" y="0.0957031" width="128.603" height="127.063" fill="white"/>
</clipPath>
</defs>
</svg>
