<svg width="20" height="20" viewBox="0 0 20 20" fill="none" xmlns="http://www.w3.org/2000/svg">
<g clip-path="url(#clip0)">
<path d="M18.4592 12.5635C18.1841 12.5635 17.9611 12.7865 17.9611 13.0616V17.4843C17.9601 18.3092 17.2918 18.9778 16.4668 18.9786H2.49052C1.66553 18.9778 0.99718 18.3092 0.996207 17.4843V4.50419C0.99718 3.6794 1.66553 3.01085 2.49052 3.00988H6.91313C7.18826 3.00988 7.41124 2.7869 7.41124 2.51178C7.41124 2.23685 7.18826 2.01367 6.91313 2.01367H2.49052C1.11567 2.01523 0.00155657 3.12935 0 4.50419V17.4845C0.00155657 18.8593 1.11567 19.9734 2.49052 19.975H16.4668C17.8416 19.9734 18.9558 18.8593 18.9573 17.4845V13.0616C18.9573 12.7865 18.7343 12.5635 18.4592 12.5635Z" fill="#999999"/>
<path d="M18.76 0.731729C17.8846 -0.143649 16.4654 -0.143649 15.59 0.731729L6.70352 9.61821C6.64262 9.67911 6.59865 9.7546 6.57569 9.83749L5.40709 14.0564C5.35903 14.2294 5.40787 14.4146 5.53473 14.5417C5.66179 14.6685 5.84702 14.7174 6.01999 14.6695L10.2389 13.5007C10.3218 13.4777 10.3973 13.4338 10.4582 13.3729L19.3445 4.48619C20.2185 3.61022 20.2185 2.19218 19.3445 1.31622L18.76 0.731729ZM7.78885 9.94198L15.0617 2.66888L17.4073 5.01445L10.1342 12.2875L7.78885 9.94198ZM7.32032 10.8821L9.19424 12.7563L6.60215 13.4744L7.32032 10.8821ZM18.6401 3.78184L18.1119 4.3101L15.7661 1.96434L16.2946 1.43608C16.7808 0.949844 17.5692 0.949844 18.0554 1.43608L18.6401 2.02057C19.1256 2.50739 19.1256 3.29521 18.6401 3.78184Z" fill="#999999"/>
</g>
<defs>
<clipPath id="clip0">
<rect width="20" height="20" fill="white"/>
</clipPath>
</defs>
</svg>
