<svg width="20" height="20" viewBox="0 0 20 20" fill="none" xmlns="http://www.w3.org/2000/svg">
<g clip-path="url(#clip0)">
<path d="M17.4478 1.45696C15.5052 -0.485654 12.3446 -0.485654 10.402 1.45696L2.9836 8.87532C2.75466 9.10427 2.75466 9.47517 2.9836 9.70411C3.21255 9.93306 3.58345 9.93306 3.81239 9.70411L11.2308 2.28575C12.6708 0.846846 15.1789 0.846846 16.619 2.28575C18.1042 3.77102 18.1042 6.18813 16.619 7.67341L6.26021 18.1488C5.37419 19.0348 3.83052 19.0348 2.94454 18.1488C2.03048 17.2347 2.03048 15.7477 2.94454 14.8337L12.8889 4.77208C13.2209 4.44013 13.8001 4.44013 14.1321 4.77208C14.4749 5.11489 14.4749 5.67298 14.1321 6.01583L4.60267 15.6624C4.40501 15.8601 4.40501 16.2935 4.60267 16.4912C4.83161 16.7202 5.20251 16.7202 5.43146 16.4912L14.9608 6.84458C15.761 6.04438 15.761 4.74345 14.9608 3.94329C14.1859 3.16833 12.8339 3.16946 12.0601 3.94329L2.11575 14.0049C0.755361 15.3652 0.755361 17.6171 2.11575 18.9775C2.78028 19.6421 3.66341 20 4.60263 20C5.54185 20 6.42505 19.6421 7.08899 18.9776L17.4477 8.50216C19.3904 6.55954 19.3904 3.39954 17.4478 1.45696Z" fill="#999999"/>
</g>
<defs>
<clipPath id="clip0">
<rect width="20" height="20" fill="white"/>
</clipPath>
</defs>
</svg>
