<svg width="70" height="70" viewBox="0 0 70 70" fill="none" xmlns="http://www.w3.org/2000/svg">
<path d="M35 70C54.33 70 70 54.33 70 35C70 15.67 54.33 0 35 0C15.67 0 0 15.67 0 35C0 54.33 15.67 70 35 70Z" fill="#FFC10E"/>
<path d="M50.2193 49.5885C50.2193 57.9905 43.406 64.8082 34.9995 64.8082C26.593 64.8082 19.7798 57.9905 19.7798 49.5885C19.7798 41.182 26.593 34.3682 34.9995 34.3682C43.406 34.3682 50.2193 41.1819 50.2193 49.5885Z" fill="#333333"/>
<path d="M24.3613 25.846C27.3971 25.846 29.8581 24.5395 29.8581 22.9279C29.8581 21.3162 27.3971 20.0098 24.3613 20.0098C21.3255 20.0098 18.8645 21.3162 18.8645 22.9279C18.8645 24.5395 21.3255 25.846 24.3613 25.846Z" fill="#333333"/>
<path d="M45.1469 25.846C48.1827 25.846 50.6437 24.5395 50.6437 22.9279C50.6437 21.3162 48.1827 20.0098 45.1469 20.0098C42.1111 20.0098 39.6501 21.3162 39.6501 22.9279C39.6501 24.5395 42.1111 25.846 45.1469 25.846Z" fill="#333333"/>
</svg>
