<svg width="70" height="70" viewBox="0 0 70 70" fill="none" xmlns="http://www.w3.org/2000/svg">
<path d="M35 70C54.33 70 70 54.33 70 35C70 15.67 54.33 0 35 0C15.67 0 0 15.67 0 35C0 54.33 15.67 70 35 70Z" fill="#FFC10E"/>
<path d="M56.5936 35.0226C56.3969 46.9419 46.9172 56.4205 34.9979 56.6173C23.0782 56.8141 13.5951 46.6446 13.4032 35.0226C13.374 33.2426 10.6106 33.2397 10.6399 35.0226C10.8614 48.4517 21.5687 59.159 34.9978 59.3805C48.428 59.6021 59.1401 48.1184 59.3568 35.0226C59.3862 33.2397 56.6229 33.2426 56.5936 35.0226Z" fill="#333333"/>
<path d="M24.3613 28.4233C27.3971 28.4233 29.8581 25.9623 29.8581 22.9265C29.8581 19.8907 27.3971 17.4297 24.3613 17.4297C21.3255 17.4297 18.8645 19.8907 18.8645 22.9265C18.8645 25.9623 21.3255 28.4233 24.3613 28.4233Z" fill="#333333"/>
<path d="M45.147 28.4233C48.1828 28.4233 50.6438 25.9623 50.6438 22.9265C50.6438 19.8907 48.1828 17.4297 45.147 17.4297C42.1112 17.4297 39.6501 19.8907 39.6501 22.9265C39.6501 25.9623 42.1112 28.4233 45.147 28.4233Z" fill="#333333"/>
</svg>
