<svg width="70" height="70" viewBox="0 0 70 70" fill="none" xmlns="http://www.w3.org/2000/svg">
<path d="M35 70C54.33 70 70 54.33 70 35C70 15.67 54.33 0 35 0C15.67 0 0 15.67 0 35C0 54.33 15.67 70 35 70Z" fill="#FFC10E"/>
<path d="M52.6801 52.2998C42.8985 42.3127 26.9427 42.3542 17.2179 52.4037C15.9789 53.6836 17.9309 55.6401 19.1716 54.3573C27.8667 45.3727 41.9744 45.3175 50.7263 54.2534C51.9748 55.5285 53.9274 53.5731 52.6801 52.2998Z" fill="#333333"/>
<path d="M24.3611 28.4243C27.3969 28.4243 29.8579 25.9633 29.8579 22.9275C29.8579 19.8917 27.3969 17.4307 24.3611 17.4307C21.3253 17.4307 18.8643 19.8917 18.8643 22.9275C18.8643 25.9633 21.3253 28.4243 24.3611 28.4243Z" fill="#333333"/>
<path d="M45.1469 28.4243C48.1827 28.4243 50.6437 25.9633 50.6437 22.9275C50.6437 19.8917 48.1827 17.4307 45.1469 17.4307C42.1111 17.4307 39.6501 19.8917 39.6501 22.9275C39.6501 25.9633 42.1111 28.4243 45.1469 28.4243Z" fill="#333333"/>
</svg>
