<svg width="70" height="70" viewBox="0 0 70 70" fill="none" xmlns="http://www.w3.org/2000/svg">
<path d="M35 70C54.33 70 70 54.33 70 35C70 15.67 54.33 0 35 0C15.67 0 0 15.67 0 35C0 54.33 15.67 70 35 70Z" fill="#FFC10E"/>
<path d="M15.7867 12.7001C19.5 15.4794 23.2134 18.2593 26.9267 21.0387C28.3548 22.1076 29.7298 19.7067 28.321 18.6529C24.6077 15.8736 20.8943 13.0937 17.181 10.3143C15.7536 9.24496 14.3781 11.6457 15.7867 12.7001Z" fill="#333333"/>
<path d="M52.6254 10.3141C48.912 13.0933 45.1987 15.8732 41.4853 18.6526C40.0766 19.7071 41.4517 22.1073 42.8796 21.0384C46.593 18.2592 50.3063 15.4793 54.0197 12.6999C55.4284 11.646 54.0535 9.24529 52.6254 10.3141Z" fill="#333333"/>
<path d="M24.3613 28.4243C27.3971 28.4243 29.8581 25.9633 29.8581 22.9275C29.8581 19.8917 27.3971 17.4307 24.3613 17.4307C21.3255 17.4307 18.8645 19.8917 18.8645 22.9275C18.8645 25.9633 21.3255 28.4243 24.3613 28.4243Z" fill="#333333"/>
<path d="M45.1467 28.4243C48.1825 28.4243 50.6435 25.9633 50.6435 22.9275C50.6435 19.8917 48.1825 17.4307 45.1467 17.4307C42.1109 17.4307 39.6499 19.8917 39.6499 22.9275C39.6499 25.9633 42.1109 28.4243 45.1467 28.4243Z" fill="#333333"/>
<path d="M57.9746 55.7898C57.9746 43.1007 47.688 32.8135 34.9983 32.8135C22.3086 32.8135 12.022 43.1007 12.022 55.7898H57.9746Z" fill="white"/>
<path d="M45.2226 55.7892C45.2226 48.9307 45.2226 42.0722 45.2226 35.2136C44.3334 34.7704 43.4104 34.3852 42.4592 34.0586C42.4592 41.3023 42.4592 48.5461 42.4592 55.7892H45.2226Z" fill="#CCCBCB"/>
<path d="M28.1503 55.7894C28.1503 48.4772 28.1503 41.1644 28.1503 33.8516C27.2003 34.1478 26.2795 34.5093 25.387 34.9215C25.387 41.8779 25.387 48.8336 25.387 55.79H28.1503V55.7894Z" fill="#CCCBCB"/>
</svg>
