<svg width="27" height="38" viewBox="0 0 27 38" fill="none" xmlns="http://www.w3.org/2000/svg">
<path d="M24.317 10.8874C23.0539 13.9912 21.0429 13.568 18.7246 12.647C16.4063 11.726 14.6585 10.6561 15.9217 7.55221C17.1848 4.44836 20.9806 0.486019 23.2989 1.40703C25.6173 2.32804 25.5802 7.78352 24.317 10.8874Z" fill="#BEC3D2"/>
<path d="M21.401 14.5924C20.3385 14.5924 19.2634 14.2328 18.2444 13.8279C16.9874 13.3286 15.7171 12.7213 14.9398 11.6683C14.0497 10.4626 13.9782 8.91812 14.727 7.07796C15.4313 5.34749 16.8177 3.41411 18.3452 2.03234C20.3088 0.256061 22.2389 -0.385203 23.7795 0.226966C25.3203 0.83905 26.2638 2.62178 26.4362 5.24671C26.5704 7.28866 26.2162 9.63207 25.5119 11.3625C24.7631 13.2027 23.6293 14.2683 22.1422 14.5298C21.8964 14.5728 21.6491 14.5924 21.401 14.5924ZM22.5604 2.54476C22.0417 2.54476 21.1547 2.9408 20.0844 3.90914C18.8424 5.03271 17.6775 6.64918 17.1166 8.0273C16.5207 9.4916 16.884 9.98366 17.0206 10.1689C17.4167 10.7054 18.3471 11.1261 19.2051 11.4671C20.0631 11.808 21.0294 12.1405 21.6911 12.0243C21.9196 11.9841 22.5265 11.8775 23.1224 10.4132C23.6832 9.03509 23.9751 7.07177 23.8661 5.41153C23.754 3.70395 23.2592 2.76301 22.8186 2.58793C22.7473 2.5596 22.6607 2.54476 22.5604 2.54476Z" fill="#E9EDF5"/>
<path d="M2.14707 10.8874C3.4102 13.9912 5.42118 13.568 7.73951 12.647C10.0578 11.726 11.8056 10.6561 10.5424 7.55221C9.27917 4.44836 5.48351 0.486019 3.16518 1.40703C0.846853 2.32804 0.883854 7.78352 2.14707 10.8874Z" fill="#DCE1EB"/>
<path d="M5.06326 14.5916C4.81515 14.5916 4.56789 14.572 4.32202 14.5288C2.8349 14.2674 1.70115 13.2018 0.952267 11.3616C0.248029 9.63122 -0.106107 7.28772 0.0279927 5.24578C0.200382 2.62084 1.14397 0.838194 2.68475 0.226025C4.22552 -0.386228 6.15546 0.25512 8.11905 2.0314C9.64651 3.41326 11.0329 5.34654 11.7372 7.07702C12.486 8.91726 12.4145 10.4616 11.5244 11.6675C10.7471 12.7205 9.47679 13.3277 8.21984 13.8271C7.20095 14.2319 6.12575 14.5916 5.06326 14.5916ZM3.90383 2.5439C3.80356 2.5439 3.71702 2.55866 3.64559 2.58708C3.20509 2.76207 2.71024 3.7031 2.59812 5.41067C2.48901 7.07091 2.78099 9.03423 3.34185 10.4124C3.93775 11.8767 4.54463 11.9834 4.77308 12.0235C5.43473 12.1396 6.40099 11.807 7.25907 11.4662C8.11707 11.1253 9.04753 10.7046 9.44356 10.1681C9.58032 9.98281 9.94347 9.49075 9.34758 8.02645C8.78671 6.64833 7.6218 5.03185 6.37979 3.90828C5.30948 2.94011 4.42246 2.5439 3.90383 2.5439Z" fill="white"/>
<path d="M1.71399 33.9299C5.06331 35.9701 9.0086 37.1472 13.2321 37.1472C17.4557 37.1472 21.401 35.9701 24.7503 33.9299L24.5215 31.6901L23.6842 30.6973L24.0651 27.2216L23.7447 24.0846L14.0627 8.32227H9.70709C6.65362 8.32227 4.09619 10.6069 3.78962 13.6085L2.39917 27.2216L2.45755 30.4371L1.94253 31.6917L1.71399 33.9299Z" fill="white"/>
<path d="M24.5215 31.6901L23.6842 30.6973L24.0651 27.2216L22.6747 13.6085C22.3681 10.6069 19.8107 8.32227 16.7572 8.32227H13.2424V37.1471C17.4621 37.1452 21.4036 35.9684 24.7502 33.9299L24.5215 31.6901Z" fill="#E9EDF5"/>
<path d="M2.39913 27.2217L1.94275 31.6901C9.17091 34.6473 17.2933 34.6473 24.5215 31.6901L24.0651 27.2217C17.1051 29.9358 9.3591 29.9358 2.39913 27.2217Z" fill="#7584F2"/>
<path d="M24.065 27.2217C20.5883 28.5774 16.9155 29.2558 13.2424 29.2572V33.9079C17.0766 33.9065 20.9106 33.1674 24.5215 31.6901L24.065 27.2217Z" fill="#606AEA"/>
<path d="M13.2322 26.1469C11.448 26.1469 10.0017 24.7178 10.0017 22.955V21.3799H16.4627V22.955C16.4627 24.7178 15.0164 26.1469 13.2322 26.1469Z" fill="#DCE1EB"/>
<path d="M13.2424 21.3799V26.1466C15.0218 26.1411 16.4625 24.7144 16.4625 22.9551V21.3799H13.2424Z" fill="#BEC3D2"/>
<path d="M13.2322 23.5765C15.0164 23.5765 16.4627 22.5929 16.4627 21.3795C16.4627 20.1662 15.0164 19.1826 13.2322 19.1826C11.4481 19.1826 10.0017 20.1662 10.0017 21.3795C10.0017 22.5929 11.4481 23.5765 13.2322 23.5765Z" fill="#636978"/>
<path d="M16.4625 21.3794C16.4625 20.1684 15.0218 19.1864 13.2424 19.1826V23.5761C15.0218 23.5723 16.4625 22.5904 16.4625 21.3794Z" fill="#414952"/>
<path d="M9.70707 8.32235C6.65359 8.32235 4.09617 10.607 3.78959 13.6086L2.71954 24.0847L10.4153 19.1954C11.6532 18.4088 12.4016 17.0544 12.4016 15.6002V8.32227H9.70707V8.32235Z" fill="#CDD2E1"/>
<path d="M16.7572 8.32235C19.8107 8.32235 22.3681 10.607 22.6747 13.6086L23.7447 24.0847L16.049 19.1954C14.811 18.4088 14.0627 17.0544 14.0627 15.6002V8.32227H16.7572V8.32235Z" fill="#AFB4C8"/>
<path d="M8.42842 17.484H8.13464C7.6288 17.484 7.21869 17.0788 7.21869 16.579V16.3366C7.21869 15.8368 7.6288 15.4316 8.13464 15.4316H8.42842C8.93426 15.4316 9.34437 15.8368 9.34437 16.3366V16.579C9.34437 17.0789 8.93426 17.484 8.42842 17.484Z" fill="#707789"/>
<path d="M18.3295 17.484H18.0358C17.5299 17.484 17.1198 17.0788 17.1198 16.579V16.3366C17.1198 15.8368 17.5299 15.4316 18.0358 15.4316H18.3295C18.8354 15.4316 19.2455 15.8368 19.2455 16.3366V16.579C19.2455 17.0789 18.8354 17.484 18.3295 17.484Z" fill="#555A66"/>
</svg>
